<svg width="25" height="24" viewBox="0 0 25 24" fill="none" xmlns="http://www.w3.org/2000/svg">
<path d="M13.9313 19C13.7819 19.0005 13.6343 18.9675 13.4993 18.9035C13.3643 18.8395 13.2454 18.746 13.1513 18.63L8.3213 12.63C8.17422 12.4511 8.09381 12.2266 8.09381 11.995C8.09381 11.7634 8.17422 11.5389 8.3213 11.36L13.3213 5.36C13.491 5.15578 13.7349 5.02736 13.9994 5.00298C14.2638 4.9786 14.5271 5.06026 14.7313 5.23C14.9355 5.39974 15.0639 5.64365 15.0883 5.90808C15.1127 6.1725 15.031 6.43578 14.8613 6.64L10.3913 12L14.7113 17.36C14.8336 17.5068 14.9113 17.6855 14.9351 17.8751C14.959 18.0646 14.9281 18.257 14.846 18.4296C14.764 18.6021 14.6342 18.7475 14.4721 18.8486C14.31 18.9497 14.1223 19.0022 13.9313 19Z" fill="#C5C5C7"/>
</svg>
