<svg width="22" height="14" fill="none" xmlns="http://www.w3.org/2000/svg">
    <path d="M.5 4.25c0-.99456.395088-1.94839 1.09835-2.65165C2.30161.895088 3.25544.5 4.25.5h13.5c.9946 0 1.9484.395088 2.6517 1.09835C21.1049 2.30161 21.5 3.25544 21.5 4.25v6c0 .4925-.097.9801-.2855 1.4351-.1884.4549-.4646.8683-.8128 1.2166-.3483.3482-.7617.6244-1.2166.8128-.455.1885-.9426.2855-1.4351.2855H4.25c-.99456 0-1.94839-.3951-2.65165-1.0983C.895088 12.1984.5 11.2446.5 10.25v-6Zm6.219.969-.969.9705-.969-.9705c-.06973-.06973-.15252-.12505-.24362-.16279-.09111-.03773-.18876-.05716-.28738-.05716-.09862 0-.19627.01943-.28738.05716-.0911.03774-.17389.09306-.24362.16279-.06973.06973-.12505.15252-.16278.24362-.03774.09111-.05717.18876-.05717.28738 0 .09862.01943.19627.05717.28738.03773.0911.09305.17389.16278.24362l.9705.969-.9705.969c-.06973.06973-.12505.15252-.16278.24362-.03774.09111-.05717.18876-.05717.28738 0 .09862.01943.19627.05717.28738.03773.0911.09305.17389.16278.24362.14083.14083.33184.21995.531.21995.09862 0 .19627-.01943.28738-.05716.0911-.03774.17389-.09306.24362-.16279l.969-.9705.969.9705c.06973.06973.15252.12505.24362.16279.09111.03773.18876.05716.28738.05716.09862 0 .19627-.01943.28738-.05716.0911-.03774.17389-.09306.24362-.16279.06973-.06973.12505-.15252.16279-.24362.03773-.09111.05716-.18876.05716-.28738 0-.09862-.01943-.19627-.05716-.28738-.03774-.0911-.09306-.17389-.16279-.24362l-.9705-.969.9705-.969c.06973-.06973.12505-.15252.16279-.24362.03773-.09111.05716-.18876.05716-.28738 0-.09862-.01943-.19627-.05716-.28738-.03774-.0911-.09306-.17389-.16279-.24362-.06973-.06973-.15252-.12505-.24362-.16279-.09111-.03773-.18876-.05716-.28738-.05716-.09862 0-.19627.01943-.28738.05716-.0911.03774-.17389.09306-.24362.16279Zm6 0-.969.9705-.969-.9705c-.0697-.06973-.1525-.12505-.2436-.16279-.0911-.03773-.1888-.05716-.2874-.05716s-.1963.01943-.28738.05716c-.0911.03774-.17389.09306-.24362.16279-.06973.06973-.12505.15252-.16279.24362-.03773.09111-.05716.18876-.05716.28738 0 .09862.01943.19627.05716.28738.03774.0911.09306.17389.16279.24362l.9705.969-.9705.969c-.06973.06973-.12505.15252-.16279.24362-.03773.09111-.05716.18876-.05716.28738 0 .09862.01943.19627.05716.28738.03774.0911.09306.17389.16279.24362.14083.14083.3318.21995.531.21995.0986 0 .1963-.01943.2874-.05716.0911-.03774.1739-.09306.2436-.16279l.969-.9705.969.9705c.1408.14083.3318.21995.531.21995.1992 0 .3902-.07912.531-.21995.1408-.14083.2199-.33184.2199-.531s-.0791-.39017-.2199-.531l-.9705-.969.9705-.969c.1408-.14083.2199-.33184.2199-.531s-.0791-.39017-.2199-.531-.3318-.21995-.531-.21995c-.1992 0-.3902.07912-.531.21995ZM15.5 8.75c0 .19891.079.38968.2197.53033.1406.14065.3314.21967.5303.21967h1.5c.1989 0 .3897-.07902.5303-.21967.1407-.14065.2197-.33142.2197-.53033 0-.19891-.079-.38968-.2197-.53033C18.1397 8.07902 17.9489 8 17.75 8h-1.5c-.1989 0-.3897.07902-.5303.21967-.1407.14065-.2197.33142-.2197.53033Z"
          fill="#C5C5C7"/>
</svg>
