<svg width="25" height="24" viewBox="0 0 25 24" fill="none" xmlns="http://www.w3.org/2000/svg">
<path fill-rule="evenodd" clip-rule="evenodd" d="M9.68429 4.8C8.40785 4.8 7.1837 5.30571 6.28112 6.20589C5.37855 7.10606 4.87149 8.32696 4.87149 9.6C4.87149 10.873 5.37855 12.0939 6.28112 12.9941C7.1837 13.8943 8.40785 14.4 9.68429 14.4C10.9607 14.4 12.1849 13.8943 13.0875 12.9941C13.99 12.0939 14.4971 10.873 14.4971 9.6C14.4971 8.32696 13.99 7.10606 13.0875 6.20589C12.1849 5.30571 10.9607 4.8 9.68429 4.8ZM2.46509 9.6C2.46494 8.46684 2.73297 7.34965 3.24737 6.33929C3.76178 5.32892 4.50803 4.45392 5.42544 3.78543C6.34284 3.11694 7.4055 2.67385 8.52698 2.4922C9.64847 2.31054 10.7971 2.39545 11.8795 2.74002C12.9619 3.08459 13.9474 3.67908 14.756 4.47515C15.5645 5.27123 16.1733 6.2464 16.5327 7.32136C16.8922 8.39632 16.9921 9.54071 16.8245 10.6615C16.6568 11.7822 16.2263 12.8477 15.5679 13.7712L21.3637 19.5516C21.5829 19.7779 21.7042 20.081 21.7015 20.3957C21.6987 20.7103 21.5722 21.0113 21.3491 21.2338C21.126 21.4563 20.8242 21.5825 20.5088 21.5852C20.1933 21.5879 19.8893 21.467 19.6624 21.2484L13.8678 15.4692C12.7878 16.2351 11.5172 16.6898 10.1953 16.7833C8.87334 16.8769 7.5511 16.6057 6.37344 15.9996C5.19578 15.3934 4.20815 14.4756 3.51876 13.3468C2.82937 12.218 2.46483 10.9217 2.46509 9.6Z" fill="#A3A3A3"/>
</svg>
