<svg width="24" height="24" viewBox="0 0 24 24" fill="none" xmlns="http://www.w3.org/2000/svg">
<path d="M2.40356 7.0608L12 11.8584L21.5964 7.0608C21.5608 6.44934 21.2929 5.87459 20.8473 5.45428C20.4018 5.03396 19.8125 4.79989 19.2 4.8H4.79996C4.18747 4.79989 3.5981 5.03396 3.15258 5.45428C2.70705 5.87459 2.43909 6.44934 2.40356 7.0608Z" fill="#C5C5C7"/>
<path d="M21.6 9.74159L12 14.5416L2.40002 9.74159V16.8C2.40002 17.4365 2.65288 18.047 3.10297 18.497C3.55306 18.9471 4.1635 19.2 4.80002 19.2H19.2C19.8365 19.2 20.447 18.9471 20.8971 18.497C21.3472 18.047 21.6 17.4365 21.6 16.8V9.74159Z" fill="#C5C5C7"/>
</svg>
